<svg width="256" height="256" xmlns="http://www.w3.org/2000/svg" xmlns:xlink="http://www.w3.org/1999/xlink"><defs><path id="a" d="M0 .002h240.326v81.186H0z"/></defs><g transform="translate(11 87)" fill="none" fill-rule="evenodd"><mask id="b" fill="#fff"><use xlink:href="#a"/></mask><path d="M220.455 65.548c-9.637 8.906-16.165 10.246-33.59 10.246-19.023 0-31.11-4.852-40.4-16.213-5.549-6.764-11.203-15.925-11.203-32.532 0-13.845 8.676-21.42 16.992-21.647h38.003c30.846-.22 37.678 5.794 39.835 17.588 1.58 8.656 3.819 30.144-9.637 42.558M110.258 23.206c-.817-7.903-4.165-13.888-8.623-17.804h37.067c-4.468 3.916-7.807 9.911-8.628 17.818a25.358 25.358 0 0 0-9.91-2.008c-3.79 0-7.086.817-9.906 1.994M93.872 59.58C84.576 70.942 72.489 75.794 53.46 75.794c-17.424 0-23.943-1.34-33.584-10.246C6.426 53.134 8.66 31.646 10.245 22.99c2.128-11.635 8.729-17.592 38.6-17.592.412 0 .83 0 1.248.004h37.99c8.31.226 16.986 7.802 16.986 21.647 0 16.607-5.659 25.768-11.197 32.532M238.96 15.164h-5.616C228.377 3.846 216.242-.17 190.243.008l-37.61-.01c-.144 0-.303 0-.447.01H88.15c-.149-.01-.303-.01-.452-.01l-37.595.01C24.085-.151 11.965 3.846 6.993 15.164H1.372a1.37 1.37 0 0 0-1.374 1.36v11.86c0 .75.62 1.37 1.374 1.37h2.56c-.95 11.418.116 28.53 12.28 39.762C27.03 79.498 35.003 81.189 53.46 81.189c20.82 0 34.165-5.443 44.59-18.192 5.318-6.495 11.342-15.887 12.274-31.668 2.623-.864 5.89-1.503 9.838-1.503 3.95 0 7.216.639 9.844 1.494.932 15.78 6.956 25.182 12.274 31.677 10.429 12.75 23.77 18.192 44.585 18.192 18.461 0 26.431-1.69 37.254-11.673 12.164-11.232 13.235-28.344 12.284-39.762h2.556c.759 0 1.369-.62 1.369-1.37v-11.86c0-.75-.61-1.36-1.37-1.36" fill="#000" mask="url(#b)"/></g></svg>