<svg width="256" height="256" xmlns="http://www.w3.org/2000/svg"><path d="M128 121.75c6.438.729 5.36 4.254 11.828 15.528 6.817 11.857 13.372 28.463 39.067 32.746 25.695 4.282 40.786-12.848 52.148-26.22 11.362-13.372 21.15-44.603 21.15-44.603l.787-6.292c.758-6.293-20.393-9.585-51.157-7.05-30.765 2.534-58.965 19.169-58.965 19.169a39.155 39.155 0 0 1-29.745 0s-28.23-16.635-58.965-19.14c-30.735-2.506-51.886.757-51.128 7.02l.757 6.293s9.818 31.23 21.15 44.603c11.333 13.372 26.453 30.473 52.149 26.22 25.695-4.254 32.279-20.889 39.096-32.746 6.468-11.274 5.39-14.8 11.828-15.528zm100.013 12.265c-6.467 19.84-30.094 38.543-54.653 30.736-24.56-7.808-33.27-38.543-32.046-45.856 1.223-7.312 17.217-21.325 48.623-25.695 30.735-4.282 36.795 5.827 36.795 5.827s8.856 11.798 1.281 34.988zM29.21 99.055s6.06-10.08 36.795-5.826c31.435 4.341 47.429 18.354 48.652 25.666 1.224 7.313-7.312 38.106-32.017 45.856-24.705 7.749-48.186-10.896-54.653-30.736-7.575-23.19 1.252-35.017 1.252-35.017l-.029.058z" fill="#000" fill-rule="nonzero"/></svg>