<svg width="256" height="256" xmlns="http://www.w3.org/2000/svg"><path d="M127.97 113.865c10.49.787 12.5 16.317 16.697 22.581 4.195 6.265 10.81 28.672 43.706 31.877 32.896 3.205 42.686-12.82 45.892-18.736 3.205-5.914 7.925-27.534 9.265-33.362a12.966 12.966 0 0 1 7.605-8.275L253 92.1c-57.692-14.016-106.44 5.07-113.024 7.254a42.162 42.162 0 0 1-23.952 0C109.44 97.17 60.664 78.084 3 92.1l1.865 15.851a12.966 12.966 0 0 1 7.546 8.275c1.34 5.828 6.061 27.506 9.266 33.392 3.205 5.885 13.054 21.97 45.892 18.735 32.838-3.234 39.306-25.291 43.706-31.876 4.4-6.585 6.235-21.824 16.696-22.611zm106.79 8.188c-1.195 28-11.48 34.76-27.156 39.131a47.873 47.873 0 0 1-45.892-12.995c-10.635-11.8-14.83-30.04-8.945-41.171 5.886-11.131 45.717-12.734 45.717-12.734a89.977 89.977 0 0 1 18.21.67c20.251 1.34 18.066 27.099 18.066 27.099zM39.247 94.955a89.977 89.977 0 0 1 18.211-.67S97.26 95.8 103.175 106.93c5.915 11.13 1.69 29.342-8.945 41.171a47.873 47.873 0 0 1-45.892 12.996c-15.676-4.4-25.99-11.13-27.156-39.132 0 .088-2.185-25.67 18.065-27.01zm203.963 6.76c-3.41 0-6.148-.875-6.148-1.953s2.768-1.952 6.148-1.952 6.148.874 6.148 1.952c0 1.078-2.856 1.894-6.236 1.894l.088.059zM6.67 99.762c0-1.078 2.768-1.952 6.148-1.952s6.148.874 6.148 1.952c0 1.078-2.768 1.953-6.148 1.953s-6.148-.875-6.148-1.953z" fill="#000" fill-rule="nonzero"/></svg>