<svg width="256" height="256" xmlns="http://www.w3.org/2000/svg"><path d="M128.015 120.064c.815 0 1.835 0 3.117.262a10.11 10.11 0 0 1 7.837 6.351 173.406 173.406 0 0 0 9.585 18.646c5.536 9.177 15.412 10.867 27.823 12.236a129.705 129.705 0 0 0 39.943-2.301c10.547-2.914 13.722-8.74 13.722-8.74s11.363-16.228 14.567-20.686a22.055 22.055 0 0 1 7.575-6.235c.496-.25.81-.756.816-1.31v-7.226a2.535 2.535 0 0 0-2.389-2.535 41.429 41.429 0 0 1-4.516-.495c-4.108-.786-15.79-6.875-27.415-9.527-11.625-2.65-29.134-1.486-45.682 1.078a174.805 174.805 0 0 0-34.058 9.731 38.107 38.107 0 0 1-21.88 0 174.805 174.805 0 0 0-34.029-9.643c-16.635-2.564-34.057-3.642-45.682-1.078-11.624 2.564-23.307 8.74-27.444 9.468a41.428 41.428 0 0 1-4.516.496A2.535 2.535 0 0 0 3 111.09v7.226c.006.555.32 1.06.816 1.31a22.025 22.025 0 0 1 7.662 6.264c3.234 4.458 14.567 20.686 14.567 20.686s3.176 5.826 13.722 8.74a129.676 129.676 0 0 0 39.943 2.301c12.44-1.34 22.288-2.913 27.823-12.236a173.406 173.406 0 0 0 9.585-18.646 10.11 10.11 0 0 1 7.837-6.351 23.776 23.776 0 0 1 3.06-.32zm106.34 3.525c-.554 5.273-7.051 16.927-11.072 21.21-4.02 4.282-12.965 8.594-29.862 8.448-16.082 0-31.902.204-39.448-9.264-7.546-9.469-10.809-26.221-6.759-30.94 4.05-4.72 18.5-7.78 18.5-7.78 11.013-2.622 38.515-6.963 52.034-2.913 16.46 4.895 17.16 15.966 16.606 21.239zM38.28 102.379c13.519-4.05 41.021.262 52.034 2.914 0 0 14.567 2.913 18.5 7.778 3.933 4.866.816 21.472-6.759 30.94-7.575 9.47-23.307 9.12-39.448 9.265-16.897 0-25.463-3.787-29.862-8.448-4.4-4.662-10.547-15.937-11.071-21.21-.524-5.273.146-16.373 16.606-21.239z" fill="#000" fill-rule="nonzero"/></svg>