<svg width="256" height="256" xmlns="http://www.w3.org/2000/svg"><path d="M237.137 148.141c-2.36 6.789-7.809 10.897-32.806 11.072-24.998.174-39.099-1.952-44.78-6.031-5.681-4.08-16.607-33.563-12.936-42.537 3.671-8.973 20.802-9.643 20.802-9.643a330.97 330.97 0 0 1 34.059-1.02c22.9.35 35.398 6.468 37.321 11.916 1.923 5.448.7 29.455-1.66 36.243zm-219.85-39.04c2.068-5.39 14.712-11.188 37.612-10.955 11.368.047 22.726.679 34.03 1.894 0 0 17.101 1.195 20.54 10.197 3.437 9.003-8.275 38.283-14.073 42.1s-19.84 5.71-44.955 4.924c-25.114-.787-30.241-5.099-32.514-11.946-2.272-6.846-2.797-30.795-.64-36.214zm110.711 1.777c2.986-.093 5.96.423 8.74 1.515.581 1.297.974 2.67 1.166 4.08.159.903.54 1.754 1.107 2.476 3.991 5.127 6.905 19.287 10.051 27.736 3.788 8.74 4.953 14.334 22.813 16.344 17.86 2.01 48.072 1.428 59.726-2.447 11.654-3.875 12.936-29.543 14.101-36.448a9.41 9.41 0 0 1 7.05-7.662c.33-4.18.33-8.378 0-12.557a3.991 3.991 0 0 0-2.388-3.584c-19.783-8.449-67.884-7.167-89.24-4.253-22.23 2.913-23.92 11.654-23.92 11.654a32.048 32.048 0 0 0-9.206-1.632c-3.108 0-6.2.45-9.177 1.34 0 0-1.457-8.74-23.6-12.265-21.268-3.293-69.31-5.827-89.356 1.98a3.991 3.991 0 0 0-2.505 3.468 79.829 79.829 0 0 0-.204 12.557 9.41 9.41 0 0 1 6.847 7.924c1.078 7.022 1.456 32.748 13.11 36.914 11.654 4.166 41.721 5.536 59.639 3.992 17.918-1.545 19.229-7.226 23.308-15.762 3.35-8.362 6.642-22.463 10.75-27.474a5.565 5.565 0 0 0 1.166-2.448 14.917 14.917 0 0 1 1.282-4.137 22.026 22.026 0 0 1 8.74-1.31zm0-5.098v0z" fill="#000" fill-rule="nonzero"/></svg>