<svg width="256" height="256" xmlns="http://www.w3.org/2000/svg" xmlns:xlink="http://www.w3.org/1999/xlink"><defs><path id="a" d="M0 0h248v100.79H0z"/></defs><g transform="translate(4 77)" fill="none" fill-rule="evenodd"><mask id="b" fill="#fff"><use xlink:href="#a"/></mask><path d="M189.737 94.364c-24.244 0-43.97-19.724-43.97-43.97 0-24.243 19.726-43.968 43.97-43.968s43.969 19.725 43.969 43.969c0 24.245-19.725 43.969-43.97 43.969zm-131.474 0c-24.244 0-43.968-19.724-43.968-43.97 0-24.243 19.724-43.968 43.968-43.968 24.245 0 43.969 19.725 43.969 43.969 0 24.245-19.724 43.969-43.97 43.969zm181.595-48.892a50.578 50.578 0 0 0-15.815-31.958C214.672 4.8 202.487 0 189.737 0c-22.763 0-42.223 14.733-48.425 36.66l-.464 1.64-1.205-1.205c-3.788-3.788-9.928-6.235-15.642-6.235-5.715 0-11.856 2.447-15.644 6.235l-1.205 1.206-.464-1.641C100.486 14.733 81.026 0 58.263 0 45.475 0 33.29 4.78 23.956 13.46 14.98 21.89 9.363 33.26 8.143 45.472l-.091.9H0v8.046h8.052l.09.9a50.574 50.574 0 0 0 15.815 31.958c9.372 8.714 21.556 13.514 34.306 13.514 27.788 0 50.396-22.582 50.396-50.34 0-6.091 6.702-13.108 15.342-13.108 8.639 0 15.34 7.017 15.34 13.053 0 27.813 22.608 50.395 50.396 50.395 12.809 0 24.992-4.8 34.305-13.513 8.972-8.374 14.59-19.744 15.816-32.015l.09-.9H248v-8.045h-7.148v-.922l-.995.077z" fill="#231F20" mask="url(#b)"/></g></svg>